<svg xmlns="http://www.w3.org/2000/svg" xmlns:xlink="http://www.w3.org/1999/xlink" viewBox="0 0 161 204" fill-rule="evenodd" stroke-linecap="round" stroke-linejoin="round" stroke-miterlimit="1.5" xmlns:v="https://vecta.io/nano"><style><![CDATA[#C,#B{transform-origin:center;animation:blink 4s ease-out infinite}@keyframes blink{0%{transform:none}97%{transform:none;animation-timing-function:ease-in}99%{transform:translateY(-7%) scaleY(0)}100%{animation-timing-function:ease-out}}.B{fill-rule:nonzero}.C{stroke-width:2.65}.D{stroke-linejoin:miter}.E{stroke-miterlimit:80}]]></style><use xlink:href="#b" fill="url(#D)" class="B"/><clipPath id="A"><use xlink:href="#b"/></clipPath><g clip-path="url(#A)"><path d="M31.214 197.429c7.569 4.174 16.116 6.514 25.161 6.514 11.408 0 22.024-3.723 30.89-10.136.083-1.55.122-3.12.122-4.707 0-28.432-12.658-51.48-28.273-51.48S30.84 160.668 30.84 189.1a91.54 91.54 0 0 0 .374 8.329h0z" fill="url(#E)" stroke="url(#F)" stroke-width="2.79"/><path d="M53.722 153.539c5.678 0 10.28-21.009 10.28-46.924S59.4 59.691 53.722 59.691s-10.28 21.009-10.28 46.924 4.602 46.924 10.28 46.924z" fill="url(#G)" stroke="url(#H)" class="B C"/></g><g class="B C"><path d="M67.237 143.377c4.887-2.891 16.146 7.098 25.15 22.313s12.342 29.892 7.456 32.783-16.147-7.098-25.15-22.312-12.342-29.892-7.456-32.784h0 0z" fill="url(#I)" stroke="url(#J)"/><path d="M95.681 198.39c4.859 2.937 16.212-6.946 25.358-22.075s12.623-29.775 7.764-32.713-16.212 6.946-25.358 22.076-12.623 29.774-7.764 32.712z" fill="url(#K)" stroke="url(#L)"/></g><g class="D C"><path d="M30.729 141.901c-13.075-5.943-21.7-21.207-23.691-35.214-2.213-15.561-.28-37.054 10.418-58.152 16.64 3.863 37.667 2.08 52.227 6.835-.594-1.783-1.188-4.16-1.782-6.537l3.268-.298 1.189 1.783c5.943 1.189 11.886 2.675 15.452 7.132 7.725 10.4 5.635 25.578 4.048 38.885 7.224-7.338 14.496-13.77 20.138-2.611 7.054 13.953-15.954 27.403-22.176 14.027-3.178 12.745-39.647 42.438-59.091 34.15h0z" fill="url(#M)" stroke="url(#N)" class="E"/><path d="M75.538 60.264s-.795-6.119-2.424-8.84c4.908 1.84 10.052 5.382 12.767 9.44 3.819 6.07 5.227 14.619 5.644 21.811.207 3.572-.478 15.805-.478 15.805l2.459-1.931.005-.004.009-.007c.008-.006 4.836-4.642 6.573-6.846 2.96-3.756 6.245-8.997 8.194-15.485 1.121 2.054 2.772 4.854 4.696 7.426 1.849 2.473 4.063 4.913 6.503 6.503 2.455 1.601 5.303 2.435 8.238 1.33 3.336-1.258 6.209-.622 8.752 1.096 2.606 1.761 4.856 4.664 6.711 7.87 1.843 3.187 3.235 6.566 4.168 9.161.466 1.295.814 2.387 1.046 3.154l.259.887.064.231a.76.76 0 0 0 .015.056l.003.013.001.003h0l.899 3.45 1.575-3.199c5.318-10.809 7.412-23.347 7.053-34.928-.358-11.561-3.167-22.319-7.809-29.534-2.325-3.612-5.161-6.414-8.458-7.921-3.336-1.525-7.041-1.676-10.938-.155-6.304 2.461-13.053 9.267-19.936 21.554.637-8.591-1.829-16.35-6.124-22.035-5.591-7.402-14.368-11.345-23.298-8.758C74.723 10.421 56.39 1.227 39.168 1.327c-17.524.102-34.419 9.883-36.917 28.23l-.001.004c-1.092 8.23 1.314 14.082 6.1 18.189 4.682 4.019 11.507 6.249 19.04 7.674 7.472 1.455 48.148 4.84 48.148 4.84z" fill="url(#O)" stroke="url(#P)" stroke-miterlimit="4" class="B"/></g><path id="B" d="M58.196 96.596c-2.99 5.341-7.08 8.474-10.617 7.554-5.011-1.304-7.026-10.254-4.497-19.973s8.65-16.552 13.662-15.248c3.713.966 5.781 6.13 5.574 12.695l-11.722 10.57 7.6 4.402h0z" fill="url(#Q)"/><path id="C" d="M27.628 92.078c-2.586 4.619-6.123 7.328-9.182 6.532-4.333-1.128-6.076-8.867-3.889-17.272s7.481-14.314 11.815-13.187c3.211.836 4.999 5.302 4.821 10.979l-10.138 9.141 6.573 3.807z" fill="url(#R)"/><path d="M107.078 74.344c1.54-7.845 2.388-9.044 2.964-15.987 5.995 6.282 4.004 13.403-2.964 15.987z" fill="url(#S)"/><path d="M18.902 115.366c3.716.237 21.579 2.154 26.85 2.211 2.325.025 9.746-.352 9.746-.352s-2.428 3.775-3.202 4.749c-3.033 3.818-7.102 7.131-12.016 8.011a14.45 14.45 0 0 1-3.755.174c-5.731-.486-10.518-4.32-13.889-8.747-.694-.912-3.184-4.951-3.734-6.046z" fill="#fff" fill-opacity=".6" stroke="url(#T)" stroke-width="1.33" class="D E"/><path d="M20.185 106.385c6.397 2.163 7.306 2.844 13.056 4.307-5.93 2.411-11.67.108-13.056-4.307z" fill="url(#U)"/><path d="M32.343 66.483c-4.496-3.795-4.901-3.559-12.912-4.718 6.003-2.222 11.667.261 12.912 4.718z" fill="url(#V)"/><path d="M64.893 70.686c-5.456-4.471-5.957-4.287-15.773-6.574 7.407-1.419 14.319 1.884 15.773 6.574z" fill="url(#W)"/><g fill="#fff" stroke-width="1.99"><path d="M124.662 168.662c2.738.396-.768 5.992-3.849 5.36-2.946-.604-11.208-4.208-13.198-10.584-1.175-3.765-1.171-5.464 1.828-6.991 1.998 10.755 11.79 11.719 15.219 12.215z" stroke="url(#X)"/><path d="M138.025 148.323c6.842-2.209 17.946.971 18.022 6.657.065 4.826-12.576.814-15.555 2.116-1.46.638-6.841 6.478-9.224 9.38-2.658 3.237-20.269 4.563-22.218-12.479-.896-13.477-17.643-16.898-19.085-19.354-3.578-6.096 12.812-11.241 17.16-3.799 1.659 2.839 4.369 9.92 5.542 9.703 4.626-1.088 10.295-16.268 13.678-21.402 5.544-8.411 21.746-5.348 13.954 3.955-1.805 2.156-13.282 8.078-10.227 12.744 1.324 2.021 13.101-10.437 21.898-8.819 4.34.799 6.145 8.943 1.832 9.439-1.08.124-12.092.218-17.207 6.879-1.771 2.463-.509 5.607 1.431 4.98h-.001z" stroke="url(#Y)"/></g><path d="M122.251 137.199c7.506 6.219 6.521 5.119 10.135 16.828-.678-9.945-4.223-14.748-10.135-16.828z" fill="url(#Z)"/><path d="M30.835 87.835c1.057-1.669 2.328-.877 3.735.131m35.208 3.201c6.235-.739 13.31 1.14 21.119 3.349M52.161 62.612c9.711 0 17.595 11.146 17.595 24.875s-7.884 24.875-17.595 24.875-17.595-11.146-17.595-24.875 7.884-24.875 17.595-24.875zm-35.748-1.221c7.96 0 14.422 10.494 14.422 23.419s-6.462 23.419-14.422 23.419S1.99 97.736 1.99 84.81s6.463-23.419 14.423-23.419z" fill="none" stroke="url(#a)" stroke-width="1.61"/><defs><linearGradient id="D" x1="-12.617" y1="141.601" x2="120.535" y2="141.601" xlink:href="#c"><stop offset="0" stop-color="#f97565"/><stop offset="1" stop-color="#eb4985"/></linearGradient><linearGradient id="E" x1="24.513" y1="189.101" x2="91.292" y2="189.101" xlink:href="#c"><stop offset="0" stop-color="#708080"/><stop offset="1" stop-color="#615161"/></linearGradient><linearGradient id="F" x1="87.434" y1="137.491" x2="30.881" y2="137.491" xlink:href="#c"><stop offset="0" stop-color="#473b47"/><stop offset="1" stop-color="#596666"/></linearGradient><linearGradient id="G" x1="41.141" y1="106.614" x2="65.422" y2="106.614" xlink:href="#c"><stop offset="0" stop-color="#fff"/><stop offset="1" stop-color="#f8d1b5"/></linearGradient><linearGradient id="H" x1="64.019" y1="59.573" x2="43.456" y2="59.573" xlink:href="#c"><stop offset="0" stop-color="#473b47"/><stop offset="1" stop-color="#596666"/></linearGradient><linearGradient id="I" x1="72.713" y1="177.333" x2="93.609" y2="164.967" xlink:href="#c"><stop offset="0" stop-color="#708080"/><stop offset="1" stop-color="#615161"/></linearGradient><linearGradient id="J" x1="108.745" y1="193.3" x2="91.049" y2="203.772" xlink:href="#c"><stop offset="0" stop-color="#473b47"/><stop offset="1" stop-color="#596666"/></linearGradient><linearGradient id="K" x1="101.475" y1="164.488" x2="122.254" y2="177.05" xlink:href="#c"><stop offset="0" stop-color="#708080"/><stop offset="1" stop-color="#615161"/></linearGradient><linearGradient id="L" x1="137.656" y1="148.861" x2="120.059" y2="138.223" xlink:href="#c"><stop offset="0" stop-color="#473b47"/><stop offset="1" stop-color="#596666"/></linearGradient><linearGradient id="M" x1="-5.761" y1="95.937" x2="120.72" y2="95.937" xlink:href="#c"><stop offset="0" stop-color="#e5e2dd"/><stop offset="1" stop-color="#f8d1b5"/></linearGradient><linearGradient id="N" x1="113.413" y1="48.416" x2="6.301" y2="48.416" xlink:href="#c"><stop offset="0" stop-color="#473b47"/><stop offset="1" stop-color="#596666"/></linearGradient><linearGradient id="O" x1="-13.88" y1="57.128" x2="167.593" y2="57.128" xlink:href="#c"><stop offset="0" stop-color="#f9be65"/><stop offset="0" stop-color="#f8e9d3"/><stop offset="1" stop-color="#a4846f"/></linearGradient><linearGradient id="P" x1="157.107" y1="2.516" x2="3.425" y2="2.516" xlink:href="#c"><stop offset="0" stop-color="#473b47"/><stop offset="1" stop-color="#596666"/></linearGradient><linearGradient id="Q" x1="62.349" y1="68.724" x2="42.005" y2="68.724" xlink:href="#c"><stop offset="0" stop-color="#473b47"/><stop offset="1" stop-color="#596666"/></linearGradient><linearGradient id="R" x1="31.219" y1="67.974" x2="13.625" y2="67.974" xlink:href="#c"><stop offset="0" stop-color="#473b47"/><stop offset="1" stop-color="#596666"/></linearGradient><linearGradient id="S" x1="113.601" y1="58.337" x2="107.082" y2="58.337" xlink:href="#c"><stop offset="0" stop-color="#473b47"/><stop offset="1" stop-color="#596666"/></linearGradient><linearGradient id="T" x1="57.28" y1="126.97" x2="54.097" y2="109.107" xlink:href="#c"><stop offset="0" stop-color="#473b47"/><stop offset="1" stop-color="#596666"/></linearGradient><linearGradient id="U" x1="32.86" y1="112.736" x2="33.588" y2="109" xlink:href="#c"><stop offset="0" stop-color="#473b47"/><stop offset="1" stop-color="#596666"/></linearGradient><linearGradient id="V" x1="19.876" y1="59.735" x2="19.03" y2="63.446" xlink:href="#c"><stop offset="0" stop-color="#473b47"/><stop offset="1" stop-color="#596666"/></linearGradient><linearGradient id="W" x1="49.7" y1="62.116" x2="48.599" y2="65.76" xlink:href="#c"><stop offset="0" stop-color="#473b47"/><stop offset="1" stop-color="#596666"/></linearGradient><linearGradient id="X" x1="122.764" y1="153.958" x2="106.261" y2="157.01" xlink:href="#c"><stop offset="0" stop-color="#473b47"/><stop offset="1" stop-color="#596666"/></linearGradient><linearGradient id="Y" x1="152.317" y1="110.935" x2="87.605" y2="122.903" xlink:href="#c"><stop offset="0" stop-color="#473b47"/><stop offset="1" stop-color="#596666"/></linearGradient><linearGradient id="Z" x1="129.303" y1="135.872" x2="122.253" y2="137.176" xlink:href="#c"><stop offset="0" stop-color="#473b47"/><stop offset="1" stop-color="#596666"/></linearGradient><linearGradient id="a" x1="90.897" y1="94.516" x2="2.004" y2="83.789" xlink:href="#c"><stop offset="0" stop-color="#473b47"/><stop offset="1" stop-color="#596666"/></linearGradient><path id="b" d="M56.375 197.976c31.135 0 56.375-25.241 56.375-56.375S87.51 85.226 56.375 85.226 0 110.466 0 141.601s25.24 56.375 56.375 56.375z"/><linearGradient id="c" gradientUnits="userSpaceOnUse"/></defs></svg>