<?xml version="1.0" encoding="UTF-8" standalone="no"?><!DOCTYPE svg PUBLIC "-//W3C//DTD SVG 1.1//EN" "http://www.w3.org/Graphics/SVG/1.1/DTD/svg11.dtd"><svg width="100%" height="100%" viewBox="0 0 2017 2563" version="1.1" xmlns="http://www.w3.org/2000/svg" xmlns:xlink="http://www.w3.org/1999/xlink" xml:space="preserve" xmlns:serif="http://www.serif.com/" style="fill-rule:evenodd;clip-rule:evenodd;stroke-linecap:round;stroke-linejoin:round;stroke-miterlimit:1.5;"><path d="M708.333,2487.5c391.2,0 708.334,-317.133 708.334,-708.333c-0,-391.2 -317.134,-708.334 -708.334,-708.334c-391.201,0 -708.333,317.134 -708.333,708.334c0,391.2 317.132,708.333 708.333,708.333Z" style="fill:url(#_Linear1);fill-rule:nonzero;"/><clipPath id="_clip2"><path d="M708.333,2487.5c391.2,0 708.334,-317.133 708.334,-708.333c-0,-391.2 -317.134,-708.334 -708.334,-708.334c-391.201,0 -708.333,317.134 -708.333,708.334c0,391.2 317.132,708.333 708.333,708.333Z" clip-rule="nonzero"/></clipPath><g clip-path="url(#_clip2)"><path d="M392.196,2480.65c95.1,52.439 202.493,81.849 316.137,81.849c143.336,0 276.728,-46.786 388.121,-127.361c1.047,-19.479 1.542,-39.202 1.542,-59.136c-0,-357.239 -159.05,-646.836 -355.246,-646.836c-196.2,-0 -355.25,289.597 -355.25,646.836c-0,35.616 1.581,70.561 4.696,104.648Z" style="fill:url(#_Linear3);stroke:url(#_Linear4);stroke-width:35.02px;"/><path d="M675,1929.17c71.338,-0 129.167,-263.967 129.167,-589.584c-0,-325.616 -57.829,-589.583 -129.167,-589.583c-71.337,-0 -129.167,263.967 -129.167,589.583c0,325.617 57.83,589.584 129.167,589.584Z" style="fill:url(#_Linear5);fill-rule:nonzero;stroke:url(#_Linear6);stroke-width:33.33px;"/></g><path d="M844.817,1801.49c61.396,-36.33 202.871,89.187 316,280.354c113.125,191.166 155.066,375.587 93.675,411.916c-61.392,36.334 -202.871,-89.187 -315.996,-280.35c-113.129,-191.166 -155.071,-375.587 -93.679,-411.921Z" style="fill:url(#_Linear7);fill-rule:nonzero;stroke:url(#_Linear8);stroke-width:33.33px;"/><path d="M1202.2,2492.71c61.05,36.908 203.7,-87.276 318.621,-277.367c114.921,-190.096 158.596,-374.113 97.55,-411.021c-61.05,-36.904 -203.7,87.275 -318.621,277.367c-114.925,190.096 -158.596,374.112 -97.55,411.021Z" style="fill:url(#_Linear9);fill-rule:nonzero;stroke:url(#_Linear10);stroke-width:33.33px;"/><path d="M386.099,1782.94c-164.279,-74.671 -272.656,-266.463 -297.674,-442.45c-27.796,-195.521 -3.51,-465.575 130.9,-730.659c209.083,48.534 473.279,26.134 656.225,85.871c-7.467,-22.4 -14.933,-52.271 -22.4,-82.137l41.071,-3.734l14.933,22.4c74.671,14.934 149.346,33.605 194.15,89.609c97.071,130.675 70.804,321.383 50.863,488.575c90.775,-92.192 182.145,-173.009 253.029,-32.804c88.633,175.316 -200.454,344.312 -278.633,176.25c-39.93,160.133 -498.155,533.212 -742.464,429.079Z" style="fill:url(#_Linear11);stroke:url(#_Linear12);stroke-width:33.33px;stroke-linejoin:miter;stroke-miterlimit:80;"/><path d="M949.113,757.2c3.583,-38.846 -9.988,-76.883 -30.459,-111.071c61.667,23.113 126.304,67.625 160.421,118.613c47.975,76.258 65.675,183.679 70.913,274.046c2.6,44.875 2.095,84.858 0.941,113.612c-0.575,14.371 -1.312,25.908 -1.904,33.829c-0.296,3.958 -0.554,7.009 -0.737,9.054c-0.092,1.021 -0.163,1.792 -0.213,2.296l-0.067,0.688l-0.004,0.025l0,0.004l-4.025,39.071l30.896,-24.259l-10.292,-13.108c10.292,13.108 10.296,13.104 10.304,13.1l0.013,-0.008l0.038,-0.034l0.116,-0.091c0.096,-0.075 0.229,-0.179 0.392,-0.313c0.333,-0.266 0.804,-0.65 1.408,-1.141c1.204,-0.992 2.934,-2.434 5.125,-4.325c4.379,-3.775 10.609,-9.334 18.175,-16.605c15.129,-14.529 35.654,-35.933 57.479,-63.629c37.2,-47.196 78.475,-113.05 102.963,-194.566c14.083,25.808 34.833,60.987 58.996,93.3c23.241,31.079 51.058,61.737 81.72,81.72c30.846,20.105 66.63,30.592 103.496,16.7c41.921,-15.8 78.021,-7.816 109.975,13.78c32.738,22.12 61.009,58.595 84.313,98.875c23.167,40.045 40.654,82.5 52.379,115.116c5.85,16.267 10.229,29.992 13.142,39.621c1.454,4.813 2.537,8.596 3.254,11.154c0.358,1.279 0.625,2.25 0.796,2.892c0.087,0.321 0.15,0.558 0.191,0.712l0.042,0.163l0.013,0.033l-0,0.004l11.3,43.346l19.779,-40.2c66.821,-135.808 93.129,-293.337 88.621,-438.85c-4.5,-145.262 -39.784,-280.437 -98.117,-371.087c-29.213,-45.392 -64.842,-80.588 -106.271,-99.525c-41.913,-19.163 -88.463,-21.067 -137.438,-1.946c-79.199,30.921 -164.004,116.433 -250.479,270.817c7.992,-107.95 -22.991,-205.43 -76.95,-276.863c-70.254,-93.004 -180.529,-142.55 -292.737,-110.043c-87.746,-251.174 -318.096,-366.69 -534.483,-365.43c-220.183,1.282 -432.475,124.168 -463.856,354.698l-0.007,0.055c-13.726,103.399 16.51,176.928 76.643,228.541c58.828,50.492 144.582,78.512 239.231,96.412c85.139,16.1 179.755,24.371 272.034,32.438c10.625,0.929 21.221,1.854 31.767,2.792c102.754,9.112 200.688,19.058 280.292,40.166l19.058,5.054l1.813,-19.633Z" style="fill:url(#_Linear13);fill-rule:nonzero;stroke:url(#_Linear14);stroke-width:33.33px;stroke-linecap:butt;stroke-linejoin:miter;stroke-miterlimit:4;"/><path d="M731.217,1213.7c-37.567,67.112 -88.959,106.475 -133.4,94.912c-62.963,-16.383 -88.284,-128.833 -56.509,-250.954c31.775,-122.125 108.692,-207.971 171.659,-191.587c46.654,12.137 72.641,77.025 70.046,159.512l-147.284,132.813l95.488,55.304Z" style="fill:url(#_Linear15);"/><path d="M347.135,1156.93c-32.49,58.038 -76.933,92.079 -115.364,82.075c-54.451,-14.167 -76.348,-111.412 -48.87,-217.021c27.48,-105.612 93.998,-179.85 148.449,-165.683c40.348,10.5 62.822,66.612 60.576,137.946l-127.371,114.854l82.58,47.829Z" style="fill:url(#_Linear16);"/><path d="M1345.4,934.112c19.353,-98.571 30.007,-113.632 37.246,-200.877c75.323,78.936 50.314,168.407 -37.246,200.877Z" style="fill:url(#_Linear17);"/><path d="M237.5,1449.54c226.158,14.404 264.475,37.695 459.817,23.354c-136.763,237.321 -345.675,203.837 -459.817,-23.354Z" style="fill:#fff;fill-opacity:0.6;stroke:url(#_Linear18);stroke-width:16.67px;stroke-linejoin:miter;stroke-miterlimit:80;"/><path d="M253.618,1336.7c80.375,27.171 91.797,35.733 164.04,54.117c-74.506,30.287 -146.628,1.358 -164.04,-54.117Z" style="fill:url(#_Linear19);"/><path d="M406.385,835.338c-56.494,-47.688 -61.583,-44.717 -162.246,-59.284c75.429,-27.912 146.599,3.288 162.246,59.284Z" style="fill:url(#_Linear20);"/><path d="M815.358,888.146c-68.554,-56.171 -74.85,-53.867 -198.183,-82.604c93.071,-17.817 179.917,23.683 198.183,82.604Z" style="fill:url(#_Linear21);"/><path d="M1092.55,1539.04l-0.882,0.163l0.163,0.884l0.883,-0.163l-0.164,-0.884Z" style="fill:none;"/><path d="M1566.34,2119.19c34.4,4.979 -9.646,75.283 -48.359,67.345c-37.012,-7.587 -140.829,-52.87 -165.833,-132.983c-14.767,-47.304 -14.717,-68.654 22.967,-87.842c25.108,135.13 148.141,147.242 191.225,153.48Z" style="fill:#fff;stroke:url(#_Linear22);stroke-width:25px;"/><path d="M1734.25,1863.64c85.967,-27.759 225.475,12.191 226.433,83.633c0.813,60.638 -158.016,10.229 -195.442,26.592c-18.35,8.021 -85.954,81.396 -115.895,117.862c-33.4,40.671 -254.679,57.333 -279.159,-156.796c-11.262,-169.333 -221.679,-212.321 -239.8,-243.187c-44.966,-76.588 160.98,-141.234 215.613,-47.725c20.837,35.667 54.883,124.641 69.629,121.916c58.121,-13.675 129.346,-204.412 171.858,-268.908c69.663,-105.691 273.234,-67.196 175.334,49.692c-22.684,27.083 -166.896,101.487 -128.504,160.121c16.633,25.396 164.608,-131.138 275.141,-110.809c54.529,10.034 77.213,112.367 23.013,118.6c-13.567,1.559 -151.925,2.738 -216.2,86.425c-22.242,30.955 -6.392,70.455 17.979,62.584Z" style="fill:#fff;stroke:url(#_Linear23);stroke-width:25px;"/><path d="M1536.05,1723.87c94.304,78.141 81.929,64.317 127.338,211.437c-8.517,-124.954 -53.055,-185.312 -127.338,-211.437Z" style="fill:url(#_Linear24);"/><defs><linearGradient id="_Linear1" x1="0" y1="0" x2="1" y2="0" gradientUnits="userSpaceOnUse" gradientTransform="matrix(1673.02,0,0,1673.02,-158.532,1779.17)"><stop offset="0" style="stop-color:#f97565;stop-opacity:1"/><stop offset="1" style="stop-color:#eb4985;stop-opacity:1"/></linearGradient><linearGradient id="_Linear3" x1="0" y1="0" x2="1" y2="0" gradientUnits="userSpaceOnUse" gradientTransform="matrix(839.062,0,0,922.046,307.992,2376)"><stop offset="0" style="stop-color:#00d1ca;stop-opacity:1"/><stop offset="1" style="stop-color:#c8ffbe;stop-opacity:1"/></linearGradient><linearGradient id="_Linear4" x1="0" y1="0" x2="1" y2="0" gradientUnits="userSpaceOnUse" gradientTransform="matrix(-710.57,9.56261e-14,-8.70197e-14,-780.846,1098.58,1727.54)"><stop offset="0" style="stop-color:#473b47;stop-opacity:1"/><stop offset="1" style="stop-color:#596666;stop-opacity:1"/></linearGradient><linearGradient id="_Linear5" x1="0" y1="0" x2="1" y2="0" gradientUnits="userSpaceOnUse" gradientTransform="matrix(305.079,0,0,305.079,516.925,1339.58)"><stop offset="0" style="stop-color:#fff;stop-opacity:1"/><stop offset="1" style="stop-color:#f8d1b5;stop-opacity:1"/></linearGradient><linearGradient id="_Linear6" x1="0" y1="0" x2="1" y2="0" gradientUnits="userSpaceOnUse" gradientTransform="matrix(-258.358,3.16398e-14,-3.16398e-14,-258.358,804.375,748.517)"><stop offset="0" style="stop-color:#473b47;stop-opacity:1"/><stop offset="1" style="stop-color:#596666;stop-opacity:1"/></linearGradient><linearGradient id="_Linear7" x1="0" y1="0" x2="1" y2="0" gradientUnits="userSpaceOnUse" gradientTransform="matrix(262.55,-155.371,155.371,262.55,913.617,2228.13)"><stop offset="0" style="stop-color:#00d1ca;stop-opacity:1"/><stop offset="1" style="stop-color:#c8ffbe;stop-opacity:1"/></linearGradient><linearGradient id="_Linear8" x1="0" y1="0" x2="1" y2="0" gradientUnits="userSpaceOnUse" gradientTransform="matrix(-222.342,131.579,-131.579,-222.342,1366.35,2428.74)"><stop offset="0" style="stop-color:#473b47;stop-opacity:1"/><stop offset="1" style="stop-color:#596666;stop-opacity:1"/></linearGradient><linearGradient id="_Linear9" x1="0" y1="0" x2="1" y2="0" gradientUnits="userSpaceOnUse" gradientTransform="matrix(261.079,157.838,-157.838,261.079,1275.01,2066.74)"><stop offset="0" style="stop-color:#00d1ca;stop-opacity:1"/><stop offset="1" style="stop-color:#c8ffbe;stop-opacity:1"/></linearGradient><linearGradient id="_Linear10" x1="0" y1="0" x2="1" y2="0" gradientUnits="userSpaceOnUse" gradientTransform="matrix(-221.096,-133.667,133.667,-221.096,1729.61,1870.4)"><stop offset="0" style="stop-color:#473b47;stop-opacity:1"/><stop offset="1" style="stop-color:#596666;stop-opacity:1"/></linearGradient><linearGradient id="_Linear11" x1="0" y1="0" x2="1" y2="0" gradientUnits="userSpaceOnUse" gradientTransform="matrix(1589.2,0,0,1589.2,-72.3796,1205.42)"><stop offset="0" style="stop-color:#e5e2dd;stop-opacity:1"/><stop offset="1" style="stop-color:#f8d1b5;stop-opacity:1"/></linearGradient><linearGradient id="_Linear12" x1="0" y1="0" x2="1" y2="0" gradientUnits="userSpaceOnUse" gradientTransform="matrix(-1345.83,1.64817e-13,-1.64817e-13,-1345.83,1425,608.333)"><stop offset="0" style="stop-color:#473b47;stop-opacity:1"/><stop offset="1" style="stop-color:#596666;stop-opacity:1"/></linearGradient><linearGradient id="_Linear13" x1="0" y1="0" x2="1" y2="0" gradientUnits="userSpaceOnUse" gradientTransform="matrix(2280.15,0,0,2280.15,-174.395,717.792)"><stop offset="0" style="stop-color:#f9be65;stop-opacity:1"/><stop offset="0" style="stop-color:#f8e9d3;stop-opacity:1"/><stop offset="1" style="stop-color:#a4846f;stop-opacity:1"/></linearGradient><linearGradient id="_Linear14" x1="0" y1="0" x2="1" y2="0" gradientUnits="userSpaceOnUse" gradientTransform="matrix(-1930.97,2.36475e-13,-2.36475e-13,-1930.97,1974,31.6113)"><stop offset="0" style="stop-color:#473b47;stop-opacity:1"/><stop offset="1" style="stop-color:#596666;stop-opacity:1"/></linearGradient><linearGradient id="_Linear15" x1="0" y1="0" x2="1" y2="0" gradientUnits="userSpaceOnUse" gradientTransform="matrix(-255.625,3.1305e-14,-3.1305e-14,-255.625,783.4,863.5)"><stop offset="0" style="stop-color:#473b47;stop-opacity:1"/><stop offset="1" style="stop-color:#596666;stop-opacity:1"/></linearGradient><linearGradient id="_Linear16" x1="0" y1="0" x2="1" y2="0" gradientUnits="userSpaceOnUse" gradientTransform="matrix(-221.061,2.70721e-14,-2.70721e-14,-221.061,392.259,854.079)"><stop offset="0" style="stop-color:#473b47;stop-opacity:1"/><stop offset="1" style="stop-color:#596666;stop-opacity:1"/></linearGradient><linearGradient id="_Linear17" x1="0" y1="0" x2="1" y2="0" gradientUnits="userSpaceOnUse" gradientTransform="matrix(-81.9114,1.02057e-14,-1.00313e-14,-83.3359,1427.36,732.981)"><stop offset="0" style="stop-color:#473b47;stop-opacity:1"/><stop offset="1" style="stop-color:#596666;stop-opacity:1"/></linearGradient><linearGradient id="_Linear18" x1="0" y1="0" x2="1" y2="0" gradientUnits="userSpaceOnUse" gradientTransform="matrix(-40,-224.442,224.442,-40,719.712,1595.34)"><stop offset="0" style="stop-color:#473b47;stop-opacity:1"/><stop offset="1" style="stop-color:#596666;stop-opacity:1"/></linearGradient><linearGradient id="_Linear19" x1="0" y1="0" x2="1" y2="0" gradientUnits="userSpaceOnUse" gradientTransform="matrix(9.14792,-46.9417,46.9417,9.14792,412.877,1416.49)"><stop offset="0" style="stop-color:#473b47;stop-opacity:1"/><stop offset="1" style="stop-color:#596666;stop-opacity:1"/></linearGradient><linearGradient id="_Linear20" x1="0" y1="0" x2="1" y2="0" gradientUnits="userSpaceOnUse" gradientTransform="matrix(-10.6271,46.625,-46.625,-10.6271,249.731,750.55)"><stop offset="0" style="stop-color:#473b47;stop-opacity:1"/><stop offset="1" style="stop-color:#596666;stop-opacity:1"/></linearGradient><linearGradient id="_Linear21" x1="0" y1="0" x2="1" y2="0" gradientUnits="userSpaceOnUse" gradientTransform="matrix(-13.8333,45.7792,-45.7792,-13.8333,624.471,780.471)"><stop offset="0" style="stop-color:#473b47;stop-opacity:1"/><stop offset="1" style="stop-color:#596666;stop-opacity:1"/></linearGradient><linearGradient id="_Linear22" x1="0" y1="0" x2="1" y2="0" gradientUnits="userSpaceOnUse" gradientTransform="matrix(-207.354,38.35,-38.35,-207.354,1542.49,1934.44)"><stop offset="0" style="stop-color:#473b47;stop-opacity:1"/><stop offset="1" style="stop-color:#596666;stop-opacity:1"/></linearGradient><linearGradient id="_Linear23" x1="0" y1="0" x2="1" y2="0" gradientUnits="userSpaceOnUse" gradientTransform="matrix(-813.092,150.371,-150.371,-813.092,1913.82,1393.86)"><stop offset="0" style="stop-color:#473b47;stop-opacity:1"/><stop offset="1" style="stop-color:#596666;stop-opacity:1"/></linearGradient><linearGradient id="_Linear24" x1="0" y1="0" x2="1" y2="0" gradientUnits="userSpaceOnUse" gradientTransform="matrix(-88.5833,16.3792,-16.3792,-88.5833,1624.65,1707.19)"><stop offset="0" style="stop-color:#473b47;stop-opacity:1"/><stop offset="1" style="stop-color:#596666;stop-opacity:1"/></linearGradient></defs></svg>