<svg xmlns="http://www.w3.org/2000/svg" xmlns:xlink="http://www.w3.org/1999/xlink" viewBox="0 0 8405 10680" fill-rule="evenodd" stroke-linecap="round" stroke-linejoin="round" stroke-miterlimit="1.5" xmlns:v="https://vecta.io/nano"><style><![CDATA[#C,#B{transform-origin:center;animation:blink 4s ease-out infinite}@keyframes blink{0%{transform:none}97%{transform:none;animation-timing-function:ease-in}99%{transform:translateY(-7%) scaleY(0)}100%{animation-timing-function:ease-out}}.B{fill-rule:nonzero}.C{stroke-width:138.88}.D{stroke-linejoin:miter}.E{stroke-miterlimit:80}]]></style><use xlink:href="#b" fill="url(#D)" class="B"/><clipPath id="A"><use xlink:href="#b"/></clipPath><g clip-path="url(#A)"><path d="M1634.15 10336c396.25 218.5 843.72 341 1317.24 341 597.23 0 1153.03-194.9 1617.17-530.6 4.36-81.2 6.42-163.38 6.42-246.43 0-1488.5-662.7-2695.15-1480.18-2695.15-817.5 0-1480.21 1206.65-1480.21 2695.15 0 148.43 6.58 294.03 19.56 436.03h0z" fill="url(#E)" stroke="url(#F)" stroke-width="145.92"/><path d="M2812.5 8038.21c297.24 0 538.2-1099.86 538.2-2456.6 0-1356.73-240.96-2456.6-538.2-2456.6s-538.2 1099.86-538.2 2456.6 240.96 2456.6 538.2 2456.6z" fill="url(#G)" stroke="url(#H)" class="B C"/></g><g class="B C"><path d="M3520.07 7506.21c255.82-151.37 845.3 371.61 1316.67 1168.14 471.35 796.53 646.11 1564.95 390.31 1716.35s-845.29-371.6-1316.65-1168.15c-471.37-796.53-646.13-1564.95-390.33-1716.34h0 0z" fill="url(#I)" stroke="url(#J)"/><path d="M5009.17 10386.3c254.38 153.8 848.75-363.7 1327.59-1155.7 478.84-792.07 660.82-1558.8 406.46-1712.59-254.38-153.77-848.75 363.65-1327.59 1155.7-478.86 792.07-660.82 1558.79-406.46 1712.59z" fill="url(#K)" stroke="url(#L)"/></g><g class="D C"><path d="M1608.75 7428.92C924.254 7117.79 472.68 6318.66 368.44 5585.38c-115.816-814.67-14.625-1939.9 545.417-3044.41 871.183 202.23 1972.003 108.89 2734.273 357.8-31.12-93.34-62.22-217.8-93.34-342.24l171.13-15.56 62.22 93.33c311.13 62.23 622.28 140.03 808.96 373.38 404.46 544.47 295.02 1339.09 211.93 2035.72 378.23-384.13 758.94-720.87 1054.29-136.68 369.3 730.48-835.22 1434.63-1160.97 734.38-166.37 667.22-2075.65 2221.72-3093.6 1787.83v-.01z" fill="url(#M)" stroke="url(#N)" class="E"/><path d="M3954.65 3155s-41.63-320.35-126.92-462.8c256.94 96.31 526.26 281.77 668.42 494.23 199.89 317.74 273.64 765.32 295.47 1141.85 10.83 186.99-25.04 827.42-25.04 827.42l128.73-101.08s.02-.02.05-.03l.22-.18.48-.38c.4-.31 253.14-242.99 344.08-358.39 155-196.65 326.98-471.04 429.01-810.69 58.68 107.54 145.14 254.11 245.82 388.75 96.84 129.5 212.74 257.24 340.5 340.5 128.52 83.77 277.62 127.47 431.23 69.58 174.67-65.83 325.09-32.56 458.23 57.42 136.41 92.17 254.21 244.15 351.31 411.98 96.52 166.85 169.39 343.75 218.24 479.65 24.38 67.78 42.62 124.97 54.76 165.09l13.56 46.47 3.31 12.05.8 2.97.18.68.05.14v.01l47.08 180.61 82.42-167.5c278.42-565.87 388.03-1222.24 369.25-1828.54-18.75-605.26-165.77-1168.49-408.82-1546.2-121.72-189.13-270.18-335.78-442.8-414.68-174.63-79.85-368.59-87.78-572.66-8.11-329.99 128.83-683.35 485.13-1043.66 1128.4 33.3-449.79-95.79-855.96-320.62-1153.6-292.73-387.52-752.21-593.96-1219.74-458.52C3911.98 545.544 2952.19 64.224 2050.58 69.484 1133.15 74.826 248.599 586.851 117.849 1547.39l-.03.23c-57.191 430.83 68.792 737.2 319.346 952.26 245.117 210.38 602.425 327.13 996.795 401.71C1825.13 2977.78 3954.65 3155 3954.65 3155z" fill="url(#O)" stroke="url(#P)" stroke-miterlimit="4" class="B"/></g><path id="B" d="M3046.74 5057.08c-156.53 279.63-370.66 443.65-555.83 395.47-262.35-68.27-367.85-536.81-235.46-1045.64 132.4-508.86 452.89-866.55 715.25-798.28 194.39 50.57 302.67 320.94 291.86 664.63l-613.69 553.39 397.87 230.43h0z" fill="url(#Q)"/><path id="C" d="M1446.4 4820.54c-135.37 241.82-320.55 383.66-480.683 341.98-226.88-59.03-318.117-464.22-203.625-904.25 114.5-440.05 391.658-749.38 618.538-690.35 168.12 43.75 261.76 277.55 252.4 574.77l-530.71 478.56 344.08 199.29z" fill="url(#R)"/><path d="M5605.83 3892.13c80.64-410.71 125.03-473.47 155.19-836.99 313.85 328.9 209.64 701.7-155.19 836.99z" fill="url(#S)"/><path d="M989.583 6039.75c194.537 12.39 1129.717 112.76 1405.687 115.75 121.7 1.32 510.21-18.44 510.21-18.44s-127.11 197.63-167.62 248.62c-158.8 199.88-371.8 373.33-629.09 419.39-64.78 11.61-131 14.7-196.58 9.13-300.01-25.46-550.63-226.14-727.11-457.92-36.36-47.76-166.69-259.19-195.497-316.53z" fill="#fff" fill-opacity=".6" stroke="url(#T)" stroke-width="69.46" class="D E"/><path d="M1056.74 5569.58c334.9 113.21 382.49 148.89 683.5 225.49-310.44 126.19-610.95 5.66-683.5-225.49z" fill="url(#U)"/><path d="M1693.27 3480.58c-235.39-198.7-256.6-186.32-676.02-247.02 314.28-116.3 610.82 13.7 676.02 247.02z" fill="url(#V)"/><path d="M3397.33 3700.61c-285.64-234.05-311.88-224.45-825.76-344.18 387.79-74.24 749.65 98.68 825.76 344.18z" fill="url(#W)"/><g fill="#fff" stroke-width="104.17"><path d="M6526.42 8829.96c143.33 20.75-40.19 313.68-201.5 280.6-154.21-31.61-586.78-220.29-690.97-554.09-61.53-197.1-61.32-286.06 95.7-366.01 104.62 563.04 617.25 613.51 796.77 639.5z" stroke="url(#X)"/><path d="M7226.04 7765.17c358.2-115.66 939.48 50.8 943.47 348.47 3.39 252.66-658.4 42.62-814.34 110.8-76.46 33.42-358.14 339.15-482.9 491.09-139.16 169.47-1061.16 238.89-1163.16-653.31-46.92-705.56-923.66-884.67-999.16-1013.28-187.36-319.12 670.75-588.48 898.38-198.86 86.82 148.61 228.68 519.34 290.12 507.99 242.18-56.98 538.95-851.72 716.08-1120.45 290.26-440.38 1138.48-279.99 730.56 207.05-94.52 112.84-695.4 422.86-535.44 667.17 69.31 105.81 685.87-546.41 1146.42-461.71 227.21 41.81 321.73 468.2 95.89 494.17-56.53 6.5-633.02 11.41-900.83 360.1-92.68 128.98-26.63 293.57 74.91 260.77h0z" stroke="url(#Y)"/></g><path d="M6400.21 7182.79c392.93 325.59 341.37 267.99 530.57 880.99-35.48-520.64-221.06-772.14-530.57-880.99z" fill="url(#Z)"/><path d="M1614.31 4598.42c55.34-87.39 121.89-45.93 195.52 6.84m1843.27 167.61c326.42-38.68 696.81 59.67 1105.61 175.31M2730.8 3277.91c508.4 0 921.15 583.54 921.15 1302.3S3239.2 5882.5 2730.8 5882.5c-508.39 0-921.14-583.53-921.14-1302.29s412.75-1302.3 921.14-1302.3zm-1871.548-63.9c416.728 0 755.058 549.38 755.058 1226.06s-338.33 1226.05-755.058 1226.05-755.057-549.37-755.057-1226.05 338.33-1226.06 755.057-1226.06z" fill="none" stroke="url(#a)" stroke-width="84.21"/><defs><linearGradient id="D" x1="-660.55" y1="7413.21" x2="6310.37" y2="7413.21" xlink:href="#c"><stop offset="0" stop-color="#f97565"/><stop offset="1" stop-color="#eb4985"/></linearGradient><linearGradient id="E" x1="1283.3" y1="9900" x2="4779.39" y2="9900" xlink:href="#c"><stop offset="0" stop-color="#708080"/><stop offset="1" stop-color="#615161"/></linearGradient><linearGradient id="F" x1="4577.42" y1="7198.08" x2="1616.71" y2="7198.08" xlink:href="#c"><stop offset="0" stop-color="#473b47"/><stop offset="1" stop-color="#596666"/></linearGradient><linearGradient id="G" x1="2153.85" y1="5581.58" x2="3425.01" y2="5581.58" xlink:href="#c"><stop offset="0" stop-color="#fff"/><stop offset="1" stop-color="#f8d1b5"/></linearGradient><linearGradient id="H" x1="3351.56" y1="3118.82" x2="2275.07" y2="3118.82" xlink:href="#c"><stop offset="0" stop-color="#473b47"/><stop offset="1" stop-color="#596666"/></linearGradient><linearGradient id="I" x1="3806.74" y1="9283.88" x2="4900.7" y2="8636.501" xlink:href="#c"><stop offset="0" stop-color="#708080"/><stop offset="1" stop-color="#615161"/></linearGradient><linearGradient id="J" x1="5693.12" y1="10119.8" x2="4766.695" y2="10668.046" xlink:href="#c"><stop offset="0" stop-color="#473b47"/><stop offset="1" stop-color="#596666"/></linearGradient><linearGradient id="K" x1="5312.54" y1="8611.42" x2="6400.37" y2="9269.078" xlink:href="#c"><stop offset="0" stop-color="#708080"/><stop offset="1" stop-color="#615161"/></linearGradient><linearGradient id="L" x1="7206.71" y1="7793.33" x2="6285.477" y2="7236.384" xlink:href="#c"><stop offset="0" stop-color="#473b47"/><stop offset="1" stop-color="#596666"/></linearGradient><linearGradient id="M" x1="-301.582" y1="5022.58" x2="6320.088" y2="5022.58" xlink:href="#c"><stop offset="0" stop-color="#e5e2dd"/><stop offset="1" stop-color="#f8d1b5"/></linearGradient><linearGradient id="N" x1="5937.5" y1="2534.72" x2="329.88" y2="2534.72" xlink:href="#c"><stop offset="0" stop-color="#473b47"/><stop offset="1" stop-color="#596666"/></linearGradient><linearGradient id="O" x1="-726.646" y1="2990.8" x2="8773.984" y2="2990.8" xlink:href="#c"><stop offset="0" stop-color="#f9be65"/><stop offset="0" stop-color="#f8e9d3"/><stop offset="1" stop-color="#a4846f"/></linearGradient><linearGradient id="P" x1="8225" y1="131.714" x2="179.29" y2="131.714" xlink:href="#c"><stop offset="0" stop-color="#473b47"/><stop offset="1" stop-color="#596666"/></linearGradient><linearGradient id="Q" x1="3264.17" y1="3597.92" x2="2199.07" y2="3597.92" xlink:href="#c"><stop offset="0" stop-color="#473b47"/><stop offset="1" stop-color="#596666"/></linearGradient><linearGradient id="R" x1="1634.41" y1="3558.66" x2="713.322" y2="3558.66" xlink:href="#c"><stop offset="0" stop-color="#473b47"/><stop offset="1" stop-color="#596666"/></linearGradient><linearGradient id="S" x1="5947.33" y1="3054.09" x2="5606.033" y2="3054.09" xlink:href="#c"><stop offset="0" stop-color="#473b47"/><stop offset="1" stop-color="#596666"/></linearGradient><linearGradient id="T" x1="2998.8" y1="6647.25" x2="2832.133" y2="5712.075" xlink:href="#c"><stop offset="0" stop-color="#473b47"/><stop offset="1" stop-color="#596666"/></linearGradient><linearGradient id="U" x1="1720.32" y1="5902.04" x2="1758.436" y2="5706.45" xlink:href="#c"><stop offset="0" stop-color="#473b47"/><stop offset="1" stop-color="#596666"/></linearGradient><linearGradient id="V" x1="1040.55" y1="3127.29" x2="996.27" y2="3321.561" xlink:href="#c"><stop offset="0" stop-color="#473b47"/><stop offset="1" stop-color="#596666"/></linearGradient><linearGradient id="W" x1="2601.96" y1="3251.96" x2="2544.321" y2="3442.707" xlink:href="#c"><stop offset="0" stop-color="#473b47"/><stop offset="1" stop-color="#596666"/></linearGradient><linearGradient id="X" x1="6427.04" y1="8060.17" x2="5563.065" y2="8219.962" xlink:href="#c"><stop offset="0" stop-color="#473b47"/><stop offset="1" stop-color="#596666"/></linearGradient><linearGradient id="Y" x1="7974.25" y1="5807.75" x2="4586.37" y2="6434.296" xlink:href="#c"><stop offset="0" stop-color="#473b47"/><stop offset="1" stop-color="#596666"/></linearGradient><linearGradient id="Z" x1="6769.38" y1="7113.29" x2="6400.283" y2="7181.537" xlink:href="#c"><stop offset="0" stop-color="#473b47"/><stop offset="1" stop-color="#596666"/></linearGradient><linearGradient id="a" x1="4758.71" y1="4948.18" x2="104.9" y2="4386.633" xlink:href="#c"><stop offset="0" stop-color="#473b47"/><stop offset="1" stop-color="#596666"/></linearGradient><path id="b" d="M2951.39 10364.6c1630 0 2951.39-1321.39 2951.39-2951.39S4581.39 4461.82 2951.39 4461.82 0 5783.21 0 7413.21s1321.38 2951.39 2951.39 2951.39z"/><linearGradient id="c" gradientUnits="userSpaceOnUse"/></defs></svg>