<?xml version="1.0" encoding="UTF-8" standalone="no"?><!DOCTYPE svg PUBLIC "-//W3C//DTD SVG 1.1//EN" "http://www.w3.org/Graphics/SVG/1.1/DTD/svg11.dtd"><svg width="100%" height="100%" viewBox="0 0 8405 10680" version="1.1" xmlns="http://www.w3.org/2000/svg" xmlns:xlink="http://www.w3.org/1999/xlink" xml:space="preserve" xmlns:serif="http://www.serif.com/" style="fill-rule:evenodd;clip-rule:evenodd;stroke-linecap:round;stroke-linejoin:round;stroke-miterlimit:1.5;">
<style>
#eye-left,
#eye-right {
transform-origin: center;  
animation: blink 4s ease-out infinite;
}
@keyframes blink {
0% {transform:  none;}
97% {transform: none;animation-timing-function: ease-in;}
99% {transform: translateY(15px) scaleY(0);}
100% {animation-timing-function: ease-out;}
}
</style>
<path id="bg-circle" d="M2951.39,10364.6c1630,0 2951.39,-1321.39 2951.39,-2951.39c0,-1630 -1321.39,-2951.39 -2951.39,-2951.39c-1630,0 -2951.39,1321.39 -2951.39,2951.39c0,1630 1321.38,2951.39 2951.39,2951.39Z" style="fill:url(#_Linear1);fill-rule:nonzero;"/><g><clipPath id="_clip2"><path d="M2951.39,10364.6c1630,0 2951.39,-1321.39 2951.39,-2951.39c0,-1630 -1321.39,-2951.39 -2951.39,-2951.39c-1630,0 -2951.39,1321.39 -2951.39,2951.39c0,1630 1321.38,2951.39 2951.39,2951.39Z"/></clipPath><g clip-path="url(#_clip2)"><path id="body" d="M1634.15,10336c396.25,218.496 843.721,341.037 1317.24,341.037c597.233,0 1153.03,-194.941 1617.17,-530.671c4.363,-81.162 6.425,-163.341 6.425,-246.4c0,-1488.5 -662.708,-2695.15 -1480.19,-2695.15c-817.5,0 -1480.21,1206.65 -1480.21,2695.15c0,148.4 6.588,294.005 19.567,436.034Z" style="fill:url(#_Linear3);stroke:url(#_Linear4);stroke-width:145.92px;"/><path id="neck" d="M2812.5,8038.21c297.242,0 538.196,-1099.86 538.196,-2456.6c-0,-1356.73 -240.954,-2456.6 -538.196,-2456.6c-297.237,-0 -538.196,1099.86 -538.196,2456.6c0,1356.74 240.959,2456.6 538.196,2456.6Z" style="fill:url(#_Linear5);fill-rule:nonzero;stroke:url(#_Linear6);stroke-width:138.88px;"/></g></g><path id="upper-arm" d="M3520.07,7506.21c255.817,-151.375 845.296,371.613 1316.67,1168.14c471.354,796.525 646.108,1564.95 390.312,1716.32c-255.8,151.391 -845.296,-371.613 -1316.65,-1168.12c-471.371,-796.525 -646.129,-1564.95 -390.329,-1716.34l-0,0.004Z" style="fill:url(#_Linear7);fill-rule:nonzero;stroke:url(#_Linear8);stroke-width:138.88px;"/><path id="lower-arm" d="M5009.17,10386.3c254.375,153.783 848.75,-363.65 1327.59,-1155.7c478.838,-792.067 660.817,-1558.8 406.458,-1712.59c-254.374,-153.766 -848.75,363.646 -1327.59,1155.7c-478.854,792.067 -660.817,1558.8 -406.458,1712.59Z" style="fill:url(#_Linear9);fill-rule:nonzero;stroke:url(#_Linear10);stroke-width:138.88px;"/><path id="face" d="M1608.75,7428.92c-684.496,-311.13 -1136.07,-1110.26 -1240.31,-1843.54c-115.816,-814.671 -14.625,-1939.9 545.417,-3044.41c871.179,202.226 1972,108.892 2734.27,357.796c-31.112,-93.333 -62.221,-217.795 -93.333,-342.237l171.129,-15.558l62.221,93.333c311.129,62.225 622.275,140.021 808.958,373.371c404.462,544.479 295.017,1339.1 211.929,2035.73c378.229,-384.133 758.938,-720.871 1054.29,-136.684c369.304,730.484 -835.225,1434.63 -1160.97,734.376c-166.375,667.22 -2075.65,2221.72 -3093.6,1787.83Z" style="fill:url(#_Linear11);stroke:url(#_Linear12);stroke-width:138.88px;stroke-linejoin:miter;stroke-miterlimit:80;"/><path id="hair" d="M3954.64,3155c14.929,-161.858 -41.617,-320.346 -126.913,-462.796c256.946,96.304 526.267,281.771 668.421,494.221c199.896,317.742 273.646,765.329 295.471,1141.86c10.833,186.98 8.729,353.575 3.921,473.384c-2.396,59.879 -5.467,107.95 -7.934,140.954c-1.233,16.492 -2.308,29.204 -3.071,37.725c-0.383,4.254 -0.679,7.467 -0.887,9.567l-0.279,2.866l-0.017,0.104l0,0.017l-16.771,162.796l128.733,-101.079l-42.883,-54.617c42.883,54.617 42.9,54.6 42.934,54.583l0.054,-0.033l0.158,-0.142l0.483,-0.379c0.4,-0.312 0.954,-0.746 1.634,-1.304c1.387,-1.108 3.35,-2.708 5.866,-4.754c5.017,-4.133 12.225,-10.142 21.354,-18.021c18.246,-15.729 44.205,-38.892 75.73,-69.188c63.037,-60.537 148.558,-149.72 239.495,-265.12c155,-196.65 326.98,-471.042 429.013,-810.692c58.679,107.533 145.137,254.112 245.817,388.75c96.837,129.496 212.741,257.237 340.5,340.5c128.525,83.771 277.625,127.467 431.233,69.583c174.671,-65.833 325.087,-32.566 458.229,57.417c136.408,92.167 254.204,244.146 351.304,411.979c96.529,166.854 169.392,343.75 218.246,479.65c24.375,67.779 42.621,124.967 54.758,165.088c6.059,20.054 10.571,35.816 13.559,46.475c1.491,5.329 2.604,9.375 3.316,12.05c0.363,1.337 0.625,2.325 0.796,2.966l0.175,0.679l0.054,0.138l0,0.017l47.084,180.608l82.412,-167.5c278.421,-565.867 388.038,-1222.24 369.254,-1828.54c-18.75,-605.258 -165.766,-1168.49 -408.82,-1546.2c-121.721,-189.133 -270.175,-335.783 -442.796,-414.687c-174.638,-79.846 -368.596,-87.779 -572.659,-8.108c-329.995,128.837 -683.35,485.137 -1043.66,1128.4c33.3,-449.792 -95.796,-855.959 -320.625,-1153.6c-292.725,-387.517 -752.204,-593.958 -1219.74,-458.513c-365.608,-1046.56 -1325.4,-1527.88 -2227.01,-1522.62c-917.429,5.342 -1801.98,517.367 -1932.73,1477.91l-0.03,0.229c-57.191,430.829 68.792,737.2 319.346,952.254c245.117,210.383 602.425,327.133 996.796,401.717c354.746,67.083 748.979,101.546 1133.48,135.158c44.271,3.871 88.421,7.725 132.363,11.633c428.141,37.967 836.2,79.409 1167.88,167.359l79.408,21.058l7.554,-81.804Z" style="fill:url(#_Linear13);fill-rule:nonzero;stroke:url(#_Linear14);stroke-width:138.88px;stroke-linecap:butt;stroke-linejoin:miter;stroke-miterlimit:4;"/><path id="eye-right" d="M3046.74,5057.08c-156.53,279.634 -370.663,443.646 -555.834,395.467c-262.346,-68.262 -367.85,-536.804 -235.454,-1045.64c132.396,-508.854 452.883,-866.545 715.246,-798.279c194.391,50.571 302.671,320.938 291.858,664.634l-613.683,553.387l397.867,230.433Z" style="fill:url(#_Linear15);"/><path id="eye-left" d="M1446.4,4820.54c-135.375,241.825 -320.554,383.662 -480.683,341.979c-226.88,-59.029 -318.117,-464.217 -203.625,-904.254c114.5,-440.05 391.658,-749.375 618.537,-690.346c168.117,43.75 261.758,277.55 252.4,574.775l-530.712,478.558l344.083,199.288Z" style="fill:url(#_Linear16);"/><path id="hair-tie" d="M5605.83,3892.13c80.638,-410.712 125.03,-473.466 155.192,-836.987c313.846,328.9 209.642,701.696 -155.192,836.987Z" style="fill:url(#_Linear17);"/><path id="mouth" d="M989.583,6039.75c942.325,60.017 1101.98,157.063 1915.9,97.308c-569.846,988.838 -1440.31,849.321 -1915.9,-97.308Z" style="fill:#fff;fill-opacity:0.6;stroke:url(#_Linear18);stroke-width:69.46px;stroke-linejoin:miter;stroke-miterlimit:80;"/><path id="nose" d="M1056.74,5569.58c334.896,113.213 382.487,148.888 683.5,225.488c-310.442,126.196 -610.95,5.658 -683.5,-225.488Z" style="fill:url(#_Linear19);"/><path id="eyebrow-left" d="M1693.27,3480.58c-235.392,-198.7 -256.596,-186.321 -676.025,-247.017c314.287,-116.3 610.829,13.7 676.025,247.017Z" style="fill:url(#_Linear20);"/><path id="eyebrow-right" d="M3397.33,3700.61c-285.642,-234.046 -311.875,-224.445 -825.763,-344.183c387.796,-74.238 749.655,98.679 825.763,344.183Z" style="fill:url(#_Linear21);"/><path id="wrist" d="M6526.42,8829.96c143.333,20.746 -40.192,313.68 -201.496,280.604c-154.217,-31.612 -586.788,-220.291 -690.971,-554.095c-61.529,-197.1 -61.321,-286.059 95.696,-366.009c104.616,563.042 617.254,613.509 796.771,639.5Z" style="fill:#fff;stroke:url(#_Linear22);stroke-width:104.17px;"/><path id="hand" d="M7226.04,7765.17c358.196,-115.663 939.479,50.796 943.471,348.471c3.387,252.658 -658.401,42.62 -814.342,110.8c-76.459,33.42 -358.142,339.15 -482.896,491.091c-139.167,169.463 -1061.16,238.888 -1163.16,-653.316c-46.925,-705.555 -923.662,-884.671 -999.166,-1013.28c-187.359,-319.116 670.75,-588.475 898.387,-198.854c86.821,148.613 228.68,519.338 290.121,507.984c242.171,-56.98 538.942,-851.717 716.075,-1120.45c290.263,-440.379 1138.48,-279.983 730.559,207.05c-94.517,112.846 -695.401,422.863 -535.434,667.171c69.304,105.817 685.867,-546.408 1146.42,-461.704c227.204,41.809 321.721,468.196 95.887,494.167c-56.529,6.496 -633.02,11.408 -900.833,360.104c-92.675,128.979 -26.633,293.562 74.913,260.767Z" style="fill:#fff;stroke:url(#_Linear23);stroke-width:104.17px;"/><path id="hand-wrinkle" d="M6400.21,7182.79c392.934,325.587 341.371,267.987 530.575,880.987c-35.487,-520.642 -221.062,-772.133 -530.575,-880.987Z" style="fill:url(#_Linear24);"/><defs><linearGradient id="_Linear1" x1="0" y1="0" x2="1" y2="0" gradientUnits="userSpaceOnUse" gradientTransform="matrix(6970.92,0,0,6970.92,-660.55,7413.21)"><stop offset="0" style="stop-color:#f97565;stop-opacity:1"/><stop offset="1" style="stop-color:#eb4985;stop-opacity:1"/></linearGradient><linearGradient id="_Linear3" x1="0" y1="0" x2="1" y2="0" gradientUnits="userSpaceOnUse" gradientTransform="matrix(3496.09,0,0,3496.09,1283.3,9900)"><stop offset="0" style="stop-color:#00d1ca;stop-opacity:1"/><stop offset="1" style="stop-color:#c8ffbe;stop-opacity:1"/></linearGradient><linearGradient id="_Linear4" x1="0" y1="0" x2="1" y2="0" gradientUnits="userSpaceOnUse" gradientTransform="matrix(-2960.71,3.62582e-13,-3.62582e-13,-2960.71,4577.42,7198.08)"><stop offset="0" style="stop-color:#473b47;stop-opacity:1"/><stop offset="1" style="stop-color:#596666;stop-opacity:1"/></linearGradient><linearGradient id="_Linear5" x1="0" y1="0" x2="1" y2="0" gradientUnits="userSpaceOnUse" gradientTransform="matrix(1271.16,0,0,1271.16,2153.85,5581.58)"><stop offset="0" style="stop-color:#fff;stop-opacity:1"/><stop offset="1" style="stop-color:#f8d1b5;stop-opacity:1"/></linearGradient><linearGradient id="_Linear6" x1="0" y1="0" x2="1" y2="0" gradientUnits="userSpaceOnUse" gradientTransform="matrix(-1076.49,1.31832e-13,-1.31832e-13,-1076.49,3351.56,3118.82)"><stop offset="0" style="stop-color:#473b47;stop-opacity:1"/><stop offset="1" style="stop-color:#596666;stop-opacity:1"/></linearGradient><linearGradient id="_Linear7" x1="0" y1="0" x2="1" y2="0" gradientUnits="userSpaceOnUse" gradientTransform="matrix(1093.96,-647.379,647.379,1093.96,3806.74,9283.88)"><stop offset="0" style="stop-color:#00d1ca;stop-opacity:1"/><stop offset="1" style="stop-color:#c8ffbe;stop-opacity:1"/></linearGradient><linearGradient id="_Linear8" x1="0" y1="0" x2="1" y2="0" gradientUnits="userSpaceOnUse" gradientTransform="matrix(-926.425,548.246,-548.246,-926.425,5693.12,10119.8)"><stop offset="0" style="stop-color:#473b47;stop-opacity:1"/><stop offset="1" style="stop-color:#596666;stop-opacity:1"/></linearGradient><linearGradient id="_Linear9" x1="0" y1="0" x2="1" y2="0" gradientUnits="userSpaceOnUse" gradientTransform="matrix(1087.83,657.658,-657.658,1087.83,5312.54,8611.42)"><stop offset="0" style="stop-color:#00d1ca;stop-opacity:1"/><stop offset="1" style="stop-color:#c8ffbe;stop-opacity:1"/></linearGradient><linearGradient id="_Linear10" x1="0" y1="0" x2="1" y2="0" gradientUnits="userSpaceOnUse" gradientTransform="matrix(-921.233,-556.946,556.946,-921.233,7206.71,7793.33)"><stop offset="0" style="stop-color:#473b47;stop-opacity:1"/><stop offset="1" style="stop-color:#596666;stop-opacity:1"/></linearGradient><linearGradient id="_Linear11" x1="0" y1="0" x2="1" y2="0" gradientUnits="userSpaceOnUse" gradientTransform="matrix(6621.67,0,0,6621.67,-301.582,5022.58)"><stop offset="0" style="stop-color:#e5e2dd;stop-opacity:1"/><stop offset="1" style="stop-color:#f8d1b5;stop-opacity:1"/></linearGradient><linearGradient id="_Linear12" x1="0" y1="0" x2="1" y2="0" gradientUnits="userSpaceOnUse" gradientTransform="matrix(-5607.62,6.86736e-13,-6.86736e-13,-5607.62,5937.5,2534.72)"><stop offset="0" style="stop-color:#473b47;stop-opacity:1"/><stop offset="1" style="stop-color:#596666;stop-opacity:1"/></linearGradient><linearGradient id="_Linear13" x1="0" y1="0" x2="1" y2="0" gradientUnits="userSpaceOnUse" gradientTransform="matrix(9500.63,0,0,9500.63,-726.646,2990.8)"><stop offset="0" style="stop-color:#f9be65;stop-opacity:1"/><stop offset="0" style="stop-color:#f8e9d3;stop-opacity:1"/><stop offset="1" style="stop-color:#a4846f;stop-opacity:1"/></linearGradient><linearGradient id="_Linear14" x1="0" y1="0" x2="1" y2="0" gradientUnits="userSpaceOnUse" gradientTransform="matrix(-8045.71,9.85315e-13,-9.85315e-13,-8045.71,8225,131.714)"><stop offset="0" style="stop-color:#473b47;stop-opacity:1"/><stop offset="1" style="stop-color:#596666;stop-opacity:1"/></linearGradient><linearGradient id="_Linear15" x1="0" y1="0" x2="1" y2="0" gradientUnits="userSpaceOnUse" gradientTransform="matrix(-1065.1,1.30438e-13,-1.30438e-13,-1065.1,3264.17,3597.92)"><stop offset="0" style="stop-color:#473b47;stop-opacity:1"/><stop offset="1" style="stop-color:#596666;stop-opacity:1"/></linearGradient><linearGradient id="_Linear16" x1="0" y1="0" x2="1" y2="0" gradientUnits="userSpaceOnUse" gradientTransform="matrix(-921.088,1.12801e-13,-1.12801e-13,-921.088,1634.41,3558.66)"><stop offset="0" style="stop-color:#473b47;stop-opacity:1"/><stop offset="1" style="stop-color:#596666;stop-opacity:1"/></linearGradient><linearGradient id="_Linear17" x1="0" y1="0" x2="1" y2="0" gradientUnits="userSpaceOnUse" gradientTransform="matrix(-341.297,4.17969e-14,-4.17969e-14,-341.297,5947.33,3054.09)"><stop offset="0" style="stop-color:#473b47;stop-opacity:1"/><stop offset="1" style="stop-color:#596666;stop-opacity:1"/></linearGradient><linearGradient id="_Linear18" x1="0" y1="0" x2="1" y2="0" gradientUnits="userSpaceOnUse" gradientTransform="matrix(-166.667,-935.175,935.175,-166.667,2998.8,6647.25)"><stop offset="0" style="stop-color:#473b47;stop-opacity:1"/><stop offset="1" style="stop-color:#596666;stop-opacity:1"/></linearGradient><linearGradient id="_Linear19" x1="0" y1="0" x2="1" y2="0" gradientUnits="userSpaceOnUse" gradientTransform="matrix(38.1163,-195.59,195.59,38.1163,1720.32,5902.04)"><stop offset="0" style="stop-color:#473b47;stop-opacity:1"/><stop offset="1" style="stop-color:#596666;stop-opacity:1"/></linearGradient><linearGradient id="_Linear20" x1="0" y1="0" x2="1" y2="0" gradientUnits="userSpaceOnUse" gradientTransform="matrix(-44.2796,194.271,-194.271,-44.2796,1040.55,3127.29)"><stop offset="0" style="stop-color:#473b47;stop-opacity:1"/><stop offset="1" style="stop-color:#596666;stop-opacity:1"/></linearGradient><linearGradient id="_Linear21" x1="0" y1="0" x2="1" y2="0" gradientUnits="userSpaceOnUse" gradientTransform="matrix(-57.6388,190.747,-190.747,-57.6388,2601.96,3251.96)"><stop offset="0" style="stop-color:#473b47;stop-opacity:1"/><stop offset="1" style="stop-color:#596666;stop-opacity:1"/></linearGradient><linearGradient id="_Linear22" x1="0" y1="0" x2="1" y2="0" gradientUnits="userSpaceOnUse" gradientTransform="matrix(-863.975,159.792,-159.792,-863.975,6427.04,8060.17)"><stop offset="0" style="stop-color:#473b47;stop-opacity:1"/><stop offset="1" style="stop-color:#596666;stop-opacity:1"/></linearGradient><linearGradient id="_Linear23" x1="0" y1="0" x2="1" y2="0" gradientUnits="userSpaceOnUse" gradientTransform="matrix(-3387.88,626.546,-626.546,-3387.88,7974.25,5807.75)"><stop offset="0" style="stop-color:#473b47;stop-opacity:1"/><stop offset="1" style="stop-color:#596666;stop-opacity:1"/></linearGradient><linearGradient id="_Linear24" x1="0" y1="0" x2="1" y2="0" gradientUnits="userSpaceOnUse" gradientTransform="matrix(-369.097,68.2467,-68.2467,-369.097,6769.38,7113.29)"><stop offset="0" style="stop-color:#473b47;stop-opacity:1"/><stop offset="1" style="stop-color:#596666;stop-opacity:1"/></linearGradient></defs></svg>