<?xml version="1.0" encoding="UTF-8" standalone="no"?>
<!DOCTYPE svg PUBLIC "-//W3C//DTD SVG 1.1//EN" "http://www.w3.org/Graphics/SVG/1.1/DTD/svg11.dtd">
<svg width="100%" height="100%" viewBox="0 0 8405 10680" version="1.1" xmlns="http://www.w3.org/2000/svg" xmlns:xlink="http://www.w3.org/1999/xlink" xml:space="preserve" xmlns:serif="http://www.serif.com/" style="fill-rule:evenodd;clip-rule:evenodd;stroke-linecap:round;stroke-linejoin:round;stroke-miterlimit:1.5;">
    <path id="bg-circle" d="M2951.39,10364.6C4581.39,10364.6 5902.78,9043.21 5902.78,7413.21C5902.78,5783.21 4581.39,4461.82 2951.39,4461.82C1321.39,4461.82 0,5783.21 0,7413.21C0,9043.21 1321.38,10364.6 2951.39,10364.6Z" style="fill:url(#_Linear1);fill-rule:nonzero;"/>
    <g>
        <g>
            <clipPath id="_clip2">
                <path d="M2951.39,10364.6C4581.39,10364.6 5902.78,9043.21 5902.78,7413.21C5902.78,5783.21 4581.39,4461.82 2951.39,4461.82C1321.39,4461.82 0,5783.21 0,7413.21C0,9043.21 1321.38,10364.6 2951.39,10364.6Z"/>
            </clipPath>
            <g clip-path="url(#_clip2)">
                <path id="body" d="M1634.15,10336C2030.4,10554.5 2477.87,10677 2951.39,10677C3548.62,10677 4104.42,10482.1 4568.56,10146.4C4572.92,10065.2 4574.98,9983.02 4574.98,9899.97C4574.98,8411.47 3912.28,7204.82 3094.8,7204.82C2277.3,7204.82 1614.59,8411.47 1614.59,9899.97C1614.59,10048.4 1621.17,10194 1634.15,10336L1634.15,10336Z" style="fill:url(#_Linear3);stroke:url(#_Linear4);stroke-width:145.92px;"/>
                <path id="neck" d="M2812.5,8038.21C3109.74,8038.21 3350.7,6938.35 3350.7,5581.61C3350.7,4224.88 3109.74,3125.01 2812.5,3125.01C2515.26,3125.01 2274.3,4224.87 2274.3,5581.61C2274.3,6938.35 2515.26,8038.21 2812.5,8038.21Z" style="fill:url(#_Linear5);fill-rule:nonzero;stroke:url(#_Linear6);stroke-width:138.88px;"/>
            </g>
        </g>
    </g>
    <style>
        #eye-left,
        #eye-right {
            transform-origin: center;  
            animation: blink 4s ease-out infinite;
        }
        @keyframes blink {
            0% {transform:  none;}
            97% {transform: none; animation-timing-function: ease-in;}
            99% {transform: translateY(-7%) scaleY(0);}
            100% {animation-timing-function: ease-out;}
        }
    </style>
    <path id="upper-arm" d="M3520.07,7506.21C3775.89,7354.84 4365.37,7877.82 4836.74,8674.35C5308.09,9470.88 5482.85,10239.3 5227.05,10390.7C4971.25,10542.1 4381.76,10019.1 3910.4,9222.55C3439.03,8426.02 3264.27,7657.6 3520.07,7506.21L3520.07,7506.21L3520.07,7506.21Z" style="fill:url(#_Linear7);fill-rule:nonzero;stroke:url(#_Linear8);stroke-width:138.88px;"/>
    <path id="lower-arm" d="M5009.17,10386.3C5263.55,10540.1 5857.92,10022.6 6336.76,9230.6C6815.6,8438.53 6997.58,7671.8 6743.22,7518.01C6488.84,7364.24 5894.47,7881.66 5415.63,8673.71C4936.77,9465.78 4754.81,10232.5 5009.17,10386.3Z" style="fill:url(#_Linear9);fill-rule:nonzero;stroke:url(#_Linear10);stroke-width:138.88px;"/>
    <path id="face" d="M1608.75,7428.92C924.254,7117.79 472.68,6318.66 368.44,5585.38C252.624,4770.71 353.815,3645.48 913.857,2540.97C1785.04,2743.2 2885.86,2649.86 3648.13,2898.77C3617.01,2805.43 3585.91,2680.97 3554.79,2556.53L3725.92,2540.97L3788.14,2634.3C4099.27,2696.53 4410.42,2774.33 4597.1,3007.68C5001.56,3552.15 4892.12,4346.77 4809.03,5043.4C5187.26,4659.27 5567.97,4322.53 5863.32,4906.72C6232.62,5637.2 5028.1,6341.35 4702.35,5641.1C4535.98,6308.32 2626.7,7862.82 1608.75,7428.93L1608.75,7428.92Z" style="fill:url(#_Linear11);stroke:url(#_Linear12);stroke-width:138.88px;stroke-linejoin:miter;stroke-miterlimit:80;"/>
    <path id="hair" d="M3954.65,3155C3954.65,3155 3913.02,2834.65 3827.73,2692.2C4084.67,2788.51 4353.99,2973.97 4496.15,3186.43C4696.04,3504.17 4769.79,3951.75 4791.62,4328.28C4802.45,4515.27 4766.58,5155.7 4766.58,5155.7L4895.31,5054.62C4895.31,5054.62 4895.33,5054.6 4895.36,5054.59L4895.58,5054.41L4896.06,5054.03C4896.46,5053.72 5149.2,4811.04 5240.14,4695.64C5395.14,4498.99 5567.12,4224.6 5669.15,3884.95C5727.83,3992.49 5814.29,4139.06 5914.97,4273.7C6011.81,4403.2 6127.71,4530.94 6255.47,4614.2C6383.99,4697.97 6533.09,4741.67 6686.7,4683.78C6861.37,4617.95 7011.79,4651.22 7144.93,4741.2C7281.34,4833.37 7399.14,4985.35 7496.24,5153.18C7592.76,5320.03 7665.63,5496.93 7714.48,5632.83C7738.86,5700.61 7757.1,5757.8 7769.24,5797.92C7775.3,5817.97 7779.81,5833.73 7782.8,5844.39C7784.29,5849.72 7785.4,5853.77 7786.11,5856.44C7786.48,5857.78 7786.74,5858.77 7786.91,5859.41L7787.09,5860.09L7787.14,5860.23L7787.14,5860.24L7834.22,6040.85L7916.64,5873.35C8195.06,5307.48 8304.67,4651.11 8285.89,4044.81C8267.14,3439.55 8120.12,2876.32 7877.07,2498.61C7755.35,2309.48 7606.89,2162.83 7434.27,2083.93C7259.64,2004.08 7065.68,1996.15 6861.61,2075.82C6531.62,2204.65 6178.26,2560.95 5817.95,3204.22C5851.25,2754.43 5722.16,2348.26 5497.33,2050.62C5204.6,1663.1 4745.12,1456.66 4277.59,1592.1C3911.98,545.544 2952.19,64.224 2050.58,69.484C1133.15,74.826 248.599,586.851 117.849,1547.39L117.819,1547.62C60.628,1978.45 186.611,2284.82 437.165,2499.88C682.282,2710.26 1039.59,2827.01 1433.96,2901.59C1825.13,2977.78 3954.65,3155 3954.65,3155Z" style="fill:url(#_Linear13);fill-rule:nonzero;stroke:url(#_Linear14);stroke-width:138.88px;stroke-linecap:butt;stroke-linejoin:miter;stroke-miterlimit:4;"/>
    <path id="eye-right" d="M3046.74,5057.08C2890.21,5336.71 2676.08,5500.73 2490.91,5452.55C2228.56,5384.28 2123.06,4915.74 2255.45,4406.91C2387.85,3898.05 2708.34,3540.36 2970.7,3608.63C3165.09,3659.2 3273.37,3929.57 3262.56,4273.26L2648.87,4826.65L3046.74,5057.08L3046.74,5057.08Z" style="fill:url(#_Linear15);"/>
    <path id="eye-left" d="M1446.4,4820.54C1311.03,5062.36 1125.85,5204.2 965.717,5162.52C738.837,5103.49 647.6,4698.3 762.092,4258.27C876.592,3818.22 1153.75,3508.89 1380.63,3567.92C1548.75,3611.67 1642.39,3845.47 1633.03,4142.69L1102.32,4621.25L1446.4,4820.54Z" style="fill:url(#_Linear16);"/>
    <path id="hair-tie" d="M5605.83,3892.13C5686.47,3481.42 5730.86,3418.66 5761.02,3055.14C6074.87,3384.04 5970.66,3756.84 5605.83,3892.13Z" style="fill:url(#_Linear17);"/>
    <path id="mouth" d="M989.583,6039.75C1184.12,6052.14 2119.3,6152.51 2395.27,6155.5C2516.97,6156.82 2905.48,6137.06 2905.48,6137.06C2905.48,6137.06 2778.37,6334.69 2737.86,6385.68C2579.06,6585.56 2366.06,6759.01 2108.77,6805.07C2043.99,6816.68 1977.77,6819.77 1912.19,6814.2C1612.18,6788.74 1361.56,6588.06 1185.08,6356.28C1148.72,6308.52 1018.39,6097.09 989.583,6039.75Z" style="fill:white;fill-opacity:0.6;stroke:url(#_Linear18);stroke-width:69.46px;stroke-linejoin:miter;stroke-miterlimit:80;"/>
    <path id="nose" d="M1056.74,5569.58C1391.64,5682.79 1439.23,5718.47 1740.24,5795.07C1429.8,5921.26 1129.29,5800.73 1056.74,5569.58Z" style="fill:url(#_Linear19);"/>
    <path id="eyebrow-left" d="M1693.27,3480.58C1457.88,3281.88 1436.67,3294.26 1017.25,3233.56C1331.53,3117.26 1628.07,3247.26 1693.27,3480.58Z" style="fill:url(#_Linear20);"/>
    <path id="eyebrow-right" d="M3397.33,3700.61C3111.69,3466.56 3085.45,3476.16 2571.57,3356.43C2959.36,3282.19 3321.22,3455.11 3397.33,3700.61Z" style="fill:url(#_Linear21);"/>
    <path id="wrist" d="M6526.42,8829.96C6669.75,8850.71 6486.23,9143.64 6324.92,9110.56C6170.71,9078.95 5738.14,8890.27 5633.95,8556.47C5572.42,8359.37 5572.63,8270.41 5729.65,8190.46C5834.27,8753.5 6346.9,8803.97 6526.42,8829.96Z" style="fill:white;stroke:url(#_Linear22);stroke-width:104.17px;"/>
    <path id="hand" d="M7226.04,7765.17C7584.24,7649.51 8165.52,7815.97 8169.51,8113.64C8172.9,8366.3 7511.11,8156.26 7355.17,8224.44C7278.71,8257.86 6997.03,8563.59 6872.27,8715.53C6733.11,8885 5811.11,8954.42 5709.11,8062.22C5662.19,7356.66 4785.45,7177.55 4709.95,7048.94C4522.59,6729.82 5380.7,6460.46 5608.33,6850.08C5695.15,6998.69 5837.01,7369.42 5898.45,7358.07C6140.63,7301.09 6437.4,6506.35 6614.53,6237.62C6904.79,5797.24 7753.01,5957.63 7345.09,6444.67C7250.57,6557.51 6649.69,6867.53 6809.65,7111.84C6878.96,7217.65 7495.52,6565.43 7956.07,6650.13C8183.28,6691.94 8277.8,7118.33 8051.96,7144.3C7995.43,7150.8 7418.94,7155.71 7151.13,7504.4C7058.45,7633.38 7124.5,7797.97 7226.04,7765.17L7226.04,7765.17Z" style="fill:white;stroke:url(#_Linear23);stroke-width:104.17px;"/>
    <path id="hand-wrinkle" d="M6400.21,7182.79C6793.14,7508.38 6741.58,7450.78 6930.78,8063.78C6895.3,7543.14 6709.72,7291.64 6400.21,7182.79Z" style="fill:url(#_Linear24);"/>
    <path id="glasses" d="M1614.31,4598.42C1669.65,4511.03 1736.2,4552.49 1809.83,4605.26M3653.1,4772.87C3979.52,4734.19 4349.91,4832.54 4758.71,4948.18M2730.8,3277.91C3239.2,3277.91 3651.95,3861.45 3651.95,4580.21C3651.95,5298.97 3239.2,5882.5 2730.8,5882.5C2222.41,5882.5 1809.66,5298.97 1809.66,4580.21C1809.66,3861.45 2222.41,3277.91 2730.8,3277.91ZM859.252,3214.01C1275.98,3214.01 1614.31,3763.39 1614.31,4440.07C1614.31,5116.75 1275.98,5666.12 859.252,5666.12C442.525,5666.12 104.195,5116.75 104.195,4440.07C104.195,3763.39 442.525,3214.01 859.252,3214.01Z" style="fill:none;stroke:url(#_Linear25);stroke-width:84.21px;"/>
    <defs>
        <linearGradient id="_Linear1" x1="0" y1="0" x2="1" y2="0" gradientUnits="userSpaceOnUse" gradientTransform="matrix(6970.92,0,0,6970.92,-660.55,7413.21)"><stop offset="0" style="stop-color:rgb(249,117,101);stop-opacity:1"/><stop offset="1" style="stop-color:rgb(235,73,133);stop-opacity:1"/></linearGradient>
        <linearGradient id="_Linear3" x1="0" y1="0" x2="1" y2="0" gradientUnits="userSpaceOnUse" gradientTransform="matrix(3496.09,0,0,3496.09,1283.3,9900)"><stop offset="0" style="stop-color:rgb(112,128,128);stop-opacity:1"/><stop offset="1" style="stop-color:rgb(97,81,97);stop-opacity:1"/></linearGradient>
        <linearGradient id="_Linear4" x1="0" y1="0" x2="1" y2="0" gradientUnits="userSpaceOnUse" gradientTransform="matrix(-2960.71,3.62582e-13,-3.62582e-13,-2960.71,4577.42,7198.08)"><stop offset="0" style="stop-color:rgb(71,59,71);stop-opacity:1"/><stop offset="1" style="stop-color:rgb(89,102,102);stop-opacity:1"/></linearGradient>
        <linearGradient id="_Linear5" x1="0" y1="0" x2="1" y2="0" gradientUnits="userSpaceOnUse" gradientTransform="matrix(1271.16,0,0,1271.16,2153.85,5581.58)"><stop offset="0" style="stop-color:white;stop-opacity:1"/><stop offset="1" style="stop-color:rgb(248,209,181);stop-opacity:1"/></linearGradient>
        <linearGradient id="_Linear6" x1="0" y1="0" x2="1" y2="0" gradientUnits="userSpaceOnUse" gradientTransform="matrix(-1076.49,1.31832e-13,-1.31832e-13,-1076.49,3351.56,3118.82)"><stop offset="0" style="stop-color:rgb(71,59,71);stop-opacity:1"/><stop offset="1" style="stop-color:rgb(89,102,102);stop-opacity:1"/></linearGradient>
        <linearGradient id="_Linear7" x1="0" y1="0" x2="1" y2="0" gradientUnits="userSpaceOnUse" gradientTransform="matrix(1093.96,-647.379,647.379,1093.96,3806.74,9283.88)"><stop offset="0" style="stop-color:rgb(112,128,128);stop-opacity:1"/><stop offset="1" style="stop-color:rgb(97,81,97);stop-opacity:1"/></linearGradient>
        <linearGradient id="_Linear8" x1="0" y1="0" x2="1" y2="0" gradientUnits="userSpaceOnUse" gradientTransform="matrix(-926.425,548.246,-548.246,-926.425,5693.12,10119.8)"><stop offset="0" style="stop-color:rgb(71,59,71);stop-opacity:1"/><stop offset="1" style="stop-color:rgb(89,102,102);stop-opacity:1"/></linearGradient>
        <linearGradient id="_Linear9" x1="0" y1="0" x2="1" y2="0" gradientUnits="userSpaceOnUse" gradientTransform="matrix(1087.83,657.658,-657.658,1087.83,5312.54,8611.42)"><stop offset="0" style="stop-color:rgb(112,128,128);stop-opacity:1"/><stop offset="1" style="stop-color:rgb(97,81,97);stop-opacity:1"/></linearGradient>
        <linearGradient id="_Linear10" x1="0" y1="0" x2="1" y2="0" gradientUnits="userSpaceOnUse" gradientTransform="matrix(-921.233,-556.946,556.946,-921.233,7206.71,7793.33)"><stop offset="0" style="stop-color:rgb(71,59,71);stop-opacity:1"/><stop offset="1" style="stop-color:rgb(89,102,102);stop-opacity:1"/></linearGradient>
        <linearGradient id="_Linear11" x1="0" y1="0" x2="1" y2="0" gradientUnits="userSpaceOnUse" gradientTransform="matrix(6621.67,0,0,6621.67,-301.582,5022.58)"><stop offset="0" style="stop-color:rgb(229,226,221);stop-opacity:1"/><stop offset="1" style="stop-color:rgb(248,209,181);stop-opacity:1"/></linearGradient>
        <linearGradient id="_Linear12" x1="0" y1="0" x2="1" y2="0" gradientUnits="userSpaceOnUse" gradientTransform="matrix(-5607.62,6.86735e-13,-6.86735e-13,-5607.62,5937.5,2534.72)"><stop offset="0" style="stop-color:rgb(71,59,71);stop-opacity:1"/><stop offset="1" style="stop-color:rgb(89,102,102);stop-opacity:1"/></linearGradient>
        <linearGradient id="_Linear13" x1="0" y1="0" x2="1" y2="0" gradientUnits="userSpaceOnUse" gradientTransform="matrix(9500.63,0,0,9500.63,-726.646,2990.8)"><stop offset="0" style="stop-color:rgb(249,190,101);stop-opacity:1"/><stop offset="0" style="stop-color:rgb(248,233,211);stop-opacity:1"/><stop offset="1" style="stop-color:rgb(164,132,111);stop-opacity:1"/></linearGradient>
        <linearGradient id="_Linear14" x1="0" y1="0" x2="1" y2="0" gradientUnits="userSpaceOnUse" gradientTransform="matrix(-8045.71,9.85315e-13,-9.85315e-13,-8045.71,8225,131.714)"><stop offset="0" style="stop-color:rgb(71,59,71);stop-opacity:1"/><stop offset="1" style="stop-color:rgb(89,102,102);stop-opacity:1"/></linearGradient>
        <linearGradient id="_Linear15" x1="0" y1="0" x2="1" y2="0" gradientUnits="userSpaceOnUse" gradientTransform="matrix(-1065.1,1.30437e-13,-1.30437e-13,-1065.1,3264.17,3597.92)"><stop offset="0" style="stop-color:rgb(71,59,71);stop-opacity:1"/><stop offset="1" style="stop-color:rgb(89,102,102);stop-opacity:1"/></linearGradient>
        <linearGradient id="_Linear16" x1="0" y1="0" x2="1" y2="0" gradientUnits="userSpaceOnUse" gradientTransform="matrix(-921.088,1.12801e-13,-1.12801e-13,-921.088,1634.41,3558.66)"><stop offset="0" style="stop-color:rgb(71,59,71);stop-opacity:1"/><stop offset="1" style="stop-color:rgb(89,102,102);stop-opacity:1"/></linearGradient>
        <linearGradient id="_Linear17" x1="0" y1="0" x2="1" y2="0" gradientUnits="userSpaceOnUse" gradientTransform="matrix(-341.297,4.17968e-14,-4.17968e-14,-341.297,5947.33,3054.09)"><stop offset="0" style="stop-color:rgb(71,59,71);stop-opacity:1"/><stop offset="1" style="stop-color:rgb(89,102,102);stop-opacity:1"/></linearGradient>
        <linearGradient id="_Linear18" x1="0" y1="0" x2="1" y2="0" gradientUnits="userSpaceOnUse" gradientTransform="matrix(-166.667,-935.175,935.175,-166.667,2998.8,6647.25)"><stop offset="0" style="stop-color:rgb(71,59,71);stop-opacity:1"/><stop offset="1" style="stop-color:rgb(89,102,102);stop-opacity:1"/></linearGradient>
        <linearGradient id="_Linear19" x1="0" y1="0" x2="1" y2="0" gradientUnits="userSpaceOnUse" gradientTransform="matrix(38.1163,-195.59,195.59,38.1163,1720.32,5902.04)"><stop offset="0" style="stop-color:rgb(71,59,71);stop-opacity:1"/><stop offset="1" style="stop-color:rgb(89,102,102);stop-opacity:1"/></linearGradient>
        <linearGradient id="_Linear20" x1="0" y1="0" x2="1" y2="0" gradientUnits="userSpaceOnUse" gradientTransform="matrix(-44.2796,194.271,-194.271,-44.2796,1040.55,3127.29)"><stop offset="0" style="stop-color:rgb(71,59,71);stop-opacity:1"/><stop offset="1" style="stop-color:rgb(89,102,102);stop-opacity:1"/></linearGradient>
        <linearGradient id="_Linear21" x1="0" y1="0" x2="1" y2="0" gradientUnits="userSpaceOnUse" gradientTransform="matrix(-57.6388,190.747,-190.747,-57.6388,2601.96,3251.96)"><stop offset="0" style="stop-color:rgb(71,59,71);stop-opacity:1"/><stop offset="1" style="stop-color:rgb(89,102,102);stop-opacity:1"/></linearGradient>
        <linearGradient id="_Linear22" x1="0" y1="0" x2="1" y2="0" gradientUnits="userSpaceOnUse" gradientTransform="matrix(-863.975,159.792,-159.792,-863.975,6427.04,8060.17)"><stop offset="0" style="stop-color:rgb(71,59,71);stop-opacity:1"/><stop offset="1" style="stop-color:rgb(89,102,102);stop-opacity:1"/></linearGradient>
        <linearGradient id="_Linear23" x1="0" y1="0" x2="1" y2="0" gradientUnits="userSpaceOnUse" gradientTransform="matrix(-3387.88,626.546,-626.546,-3387.88,7974.25,5807.75)"><stop offset="0" style="stop-color:rgb(71,59,71);stop-opacity:1"/><stop offset="1" style="stop-color:rgb(89,102,102);stop-opacity:1"/></linearGradient>
        <linearGradient id="_Linear24" x1="0" y1="0" x2="1" y2="0" gradientUnits="userSpaceOnUse" gradientTransform="matrix(-369.097,68.2467,-68.2467,-369.097,6769.38,7113.29)"><stop offset="0" style="stop-color:rgb(71,59,71);stop-opacity:1"/><stop offset="1" style="stop-color:rgb(89,102,102);stop-opacity:1"/></linearGradient>
        <linearGradient id="_Linear25" x1="0" y1="0" x2="1" y2="0" gradientUnits="userSpaceOnUse" gradientTransform="matrix(-4653.81,-561.547,561.547,-4653.81,4758.71,4948.18)"><stop offset="0" style="stop-color:rgb(71,59,71);stop-opacity:1"/><stop offset="1" style="stop-color:rgb(89,102,102);stop-opacity:1"/></linearGradient>
    </defs>
</svg>
